<mxfile host="app.diagrams.net" modified="2024-04-04T02:09:23.895Z" agent="Mozilla/5.0 (Macintosh; Intel Mac OS X 10_15_7) AppleWebKit/605.1.15 (KHTML, like Gecko) Version/17.4.1 Safari/605.1.15" etag="98l4rtsOMKtdonwnbPNu" version="24.2.2" type="github">
  <diagram name="Page-1" id="zxOOqOXYeWNDL_sVCYmA">
    <mxGraphModel dx="2920" dy="2749" grid="1" gridSize="10" guides="1" tooltips="1" connect="1" arrows="1" fold="1" page="0" pageScale="1" pageWidth="850" pageHeight="1100" math="0" shadow="0">
      <root>
        <mxCell id="0" />
        <mxCell id="1" parent="0" />
        <mxCell id="_Byfggc6OKji1Mm2qViK-9" value="" style="edgeStyle=none;curved=1;rounded=1;orthogonalLoop=1;jettySize=auto;html=1;fontSize=12;startSize=8;endSize=8;fillColor=#d5e8d4;strokeColor=#82b366;" edge="1" parent="1" source="_Byfggc6OKji1Mm2qViK-7" target="_Byfggc6OKji1Mm2qViK-8">
          <mxGeometry relative="1" as="geometry" />
        </mxCell>
        <mxCell id="_Byfggc6OKji1Mm2qViK-7" value="start" style="ellipse;whiteSpace=wrap;html=1;rounded=1;" vertex="1" parent="1">
          <mxGeometry x="-430" y="-990" width="170" height="120" as="geometry" />
        </mxCell>
        <mxCell id="_Byfggc6OKji1Mm2qViK-11" value="" style="edgeStyle=none;curved=1;rounded=1;orthogonalLoop=1;jettySize=auto;html=1;fontSize=12;startSize=8;endSize=8;fillColor=#d5e8d4;strokeColor=#82b366;" edge="1" parent="1" source="_Byfggc6OKji1Mm2qViK-8" target="_Byfggc6OKji1Mm2qViK-10">
          <mxGeometry relative="1" as="geometry" />
        </mxCell>
        <mxCell id="_Byfggc6OKji1Mm2qViK-8" value="Input Score" style="shape=parallelogram;perimeter=parallelogramPerimeter;whiteSpace=wrap;html=1;fixedSize=1;rounded=1;fillColor=#d5e8d4;strokeColor=#82b366;" vertex="1" parent="1">
          <mxGeometry x="-440" y="-770" width="180" height="100" as="geometry" />
        </mxCell>
        <mxCell id="_Byfggc6OKji1Mm2qViK-23" style="edgeStyle=none;curved=1;rounded=1;orthogonalLoop=1;jettySize=auto;html=1;fontSize=12;startSize=8;endSize=8;fillColor=#d5e8d4;strokeColor=#82b366;" edge="1" parent="1" source="_Byfggc6OKji1Mm2qViK-10" target="_Byfggc6OKji1Mm2qViK-12">
          <mxGeometry relative="1" as="geometry" />
        </mxCell>
        <mxCell id="_Byfggc6OKji1Mm2qViK-50" style="edgeStyle=none;curved=1;rounded=1;orthogonalLoop=1;jettySize=auto;html=1;entryX=0.5;entryY=1;entryDx=0;entryDy=0;fontSize=12;startSize=8;endSize=8;fillColor=#d5e8d4;strokeColor=#82b366;" edge="1" parent="1" source="_Byfggc6OKji1Mm2qViK-10" target="_Byfggc6OKji1Mm2qViK-24">
          <mxGeometry relative="1" as="geometry" />
        </mxCell>
        <mxCell id="_Byfggc6OKji1Mm2qViK-10" value="if score 90-100" style="shape=parallelogram;perimeter=parallelogramPerimeter;whiteSpace=wrap;html=1;fixedSize=1;rounded=1;fillColor=#d5e8d4;strokeColor=#82b366;" vertex="1" parent="1">
          <mxGeometry x="-450" y="-610" width="180" height="90" as="geometry" />
        </mxCell>
        <mxCell id="_Byfggc6OKji1Mm2qViK-69" style="edgeStyle=none;curved=0;rounded=0;orthogonalLoop=1;jettySize=auto;html=1;entryX=0.75;entryY=0;entryDx=0;entryDy=0;strokeColor=#82b366;align=center;verticalAlign=middle;fontFamily=Helvetica;fontSize=12;fontColor=default;labelBackgroundColor=default;startSize=8;endArrow=classic;endSize=8;fillColor=#d5e8d4;" edge="1" parent="1" source="_Byfggc6OKji1Mm2qViK-12" target="_Byfggc6OKji1Mm2qViK-40">
          <mxGeometry relative="1" as="geometry">
            <Array as="points">
              <mxPoint x="630" y="-565" />
            </Array>
          </mxGeometry>
        </mxCell>
        <mxCell id="_Byfggc6OKji1Mm2qViK-12" value="OUTPUT: score + &quot;A!&quot;" style="shape=parallelogram;perimeter=parallelogramPerimeter;whiteSpace=wrap;html=1;fixedSize=1;direction=west;rounded=1;fillColor=#d5e8d4;strokeColor=#82b366;" vertex="1" parent="1">
          <mxGeometry x="-70" y="-610" width="180" height="90" as="geometry" />
        </mxCell>
        <mxCell id="_Byfggc6OKji1Mm2qViK-49" style="edgeStyle=none;curved=1;rounded=1;orthogonalLoop=1;jettySize=auto;html=1;entryX=1;entryY=0.5;entryDx=0;entryDy=0;fontSize=12;startSize=8;endSize=8;fillColor=#d5e8d4;strokeColor=#82b366;" edge="1" parent="1" source="_Byfggc6OKji1Mm2qViK-24" target="_Byfggc6OKji1Mm2qViK-26">
          <mxGeometry relative="1" as="geometry" />
        </mxCell>
        <mxCell id="_Byfggc6OKji1Mm2qViK-51" style="edgeStyle=none;curved=1;rounded=1;orthogonalLoop=1;jettySize=auto;html=1;entryX=0.5;entryY=1;entryDx=0;entryDy=0;fontSize=12;startSize=8;endSize=8;fillColor=#d5e8d4;strokeColor=#82b366;" edge="1" parent="1" source="_Byfggc6OKji1Mm2qViK-24" target="_Byfggc6OKji1Mm2qViK-28">
          <mxGeometry relative="1" as="geometry" />
        </mxCell>
        <mxCell id="_Byfggc6OKji1Mm2qViK-24" value="if score 80-89" style="shape=parallelogram;perimeter=parallelogramPerimeter;whiteSpace=wrap;html=1;fixedSize=1;direction=west;rounded=1;fillColor=#d5e8d4;strokeColor=#82b366;" vertex="1" parent="1">
          <mxGeometry x="-460" y="-410" width="180" height="90" as="geometry" />
        </mxCell>
        <mxCell id="_Byfggc6OKji1Mm2qViK-68" style="edgeStyle=none;curved=0;rounded=0;orthogonalLoop=1;jettySize=auto;html=1;exitX=0;exitY=0.5;exitDx=0;exitDy=0;entryX=0.5;entryY=0;entryDx=0;entryDy=0;strokeColor=#82b366;align=center;verticalAlign=middle;fontFamily=Helvetica;fontSize=12;fontColor=default;labelBackgroundColor=default;startSize=8;endArrow=classic;endSize=8;fillColor=#d5e8d4;" edge="1" parent="1" source="_Byfggc6OKji1Mm2qViK-26" target="_Byfggc6OKji1Mm2qViK-40">
          <mxGeometry relative="1" as="geometry">
            <Array as="points">
              <mxPoint x="580" y="-365" />
            </Array>
          </mxGeometry>
        </mxCell>
        <mxCell id="_Byfggc6OKji1Mm2qViK-26" value="OUTPUT: score + &quot;B&quot;!" style="shape=parallelogram;perimeter=parallelogramPerimeter;whiteSpace=wrap;html=1;fixedSize=1;direction=west;rounded=1;fillColor=#d5e8d4;strokeColor=#82b366;" vertex="1" parent="1">
          <mxGeometry x="-80" y="-410" width="180" height="90" as="geometry" />
        </mxCell>
        <mxCell id="_Byfggc6OKji1Mm2qViK-31" value="" style="edgeStyle=none;curved=1;rounded=1;orthogonalLoop=1;jettySize=auto;html=1;fontSize=12;startSize=8;endSize=8;fillColor=#d5e8d4;strokeColor=#82b366;" edge="1" parent="1" source="_Byfggc6OKji1Mm2qViK-28" target="_Byfggc6OKji1Mm2qViK-30">
          <mxGeometry relative="1" as="geometry" />
        </mxCell>
        <mxCell id="_Byfggc6OKji1Mm2qViK-52" style="edgeStyle=none;curved=1;rounded=1;orthogonalLoop=1;jettySize=auto;html=1;exitX=0.5;exitY=0;exitDx=0;exitDy=0;entryX=0.5;entryY=1;entryDx=0;entryDy=0;fontSize=12;startSize=8;endSize=8;fillColor=#d5e8d4;strokeColor=#82b366;" edge="1" parent="1" source="_Byfggc6OKji1Mm2qViK-28" target="_Byfggc6OKji1Mm2qViK-32">
          <mxGeometry relative="1" as="geometry" />
        </mxCell>
        <mxCell id="_Byfggc6OKji1Mm2qViK-28" value="if score 70-70" style="shape=parallelogram;perimeter=parallelogramPerimeter;whiteSpace=wrap;html=1;fixedSize=1;direction=west;rounded=1;fillColor=#d5e8d4;strokeColor=#82b366;" vertex="1" parent="1">
          <mxGeometry x="-475" y="-230" width="180" height="90" as="geometry" />
        </mxCell>
        <mxCell id="_Byfggc6OKji1Mm2qViK-65" style="edgeStyle=none;curved=0;rounded=0;orthogonalLoop=1;jettySize=auto;html=1;exitX=0;exitY=0.5;exitDx=0;exitDy=0;entryX=0.25;entryY=1;entryDx=0;entryDy=0;fontSize=12;startSize=8;endSize=8;fillColor=#d5e8d4;strokeColor=#82b366;" edge="1" parent="1" source="_Byfggc6OKji1Mm2qViK-30" target="_Byfggc6OKji1Mm2qViK-40">
          <mxGeometry relative="1" as="geometry">
            <Array as="points">
              <mxPoint x="530" y="-180" />
            </Array>
          </mxGeometry>
        </mxCell>
        <mxCell id="_Byfggc6OKji1Mm2qViK-30" value="OUTPUT: score + &quot;C!&quot;" style="shape=parallelogram;perimeter=parallelogramPerimeter;whiteSpace=wrap;html=1;fixedSize=1;direction=west;rounded=1;fillColor=#d5e8d4;strokeColor=#82b366;" vertex="1" parent="1">
          <mxGeometry x="-100" y="-230" width="180" height="90" as="geometry" />
        </mxCell>
        <mxCell id="_Byfggc6OKji1Mm2qViK-53" style="edgeStyle=none;curved=1;rounded=1;orthogonalLoop=1;jettySize=auto;html=1;exitX=0.5;exitY=0;exitDx=0;exitDy=0;entryX=0.5;entryY=1;entryDx=0;entryDy=0;fontSize=12;startSize=8;endSize=8;fillColor=#d5e8d4;strokeColor=#82b366;" edge="1" parent="1" source="_Byfggc6OKji1Mm2qViK-32" target="_Byfggc6OKji1Mm2qViK-36">
          <mxGeometry relative="1" as="geometry" />
        </mxCell>
        <mxCell id="_Byfggc6OKji1Mm2qViK-55" style="edgeStyle=none;curved=1;rounded=1;orthogonalLoop=1;jettySize=auto;html=1;entryX=1;entryY=0.5;entryDx=0;entryDy=0;fontSize=12;startSize=8;endSize=8;fillColor=#d5e8d4;strokeColor=#82b366;" edge="1" parent="1" source="_Byfggc6OKji1Mm2qViK-32" target="_Byfggc6OKji1Mm2qViK-34">
          <mxGeometry relative="1" as="geometry" />
        </mxCell>
        <mxCell id="_Byfggc6OKji1Mm2qViK-32" value="if score 60-69" style="shape=parallelogram;perimeter=parallelogramPerimeter;whiteSpace=wrap;html=1;fixedSize=1;direction=west;rounded=1;fillColor=#d5e8d4;strokeColor=#82b366;" vertex="1" parent="1">
          <mxGeometry x="-480" y="-20" width="180" height="90" as="geometry" />
        </mxCell>
        <mxCell id="_Byfggc6OKji1Mm2qViK-34" value="OUTPUT: score + &quot;D&quot;" style="shape=parallelogram;perimeter=parallelogramPerimeter;whiteSpace=wrap;html=1;fixedSize=1;direction=west;rounded=1;fillColor=#d5e8d4;strokeColor=#82b366;" vertex="1" parent="1">
          <mxGeometry x="-100" y="-20" width="180" height="90" as="geometry" />
        </mxCell>
        <mxCell id="_Byfggc6OKji1Mm2qViK-39" value="" style="edgeStyle=none;curved=1;rounded=1;orthogonalLoop=1;jettySize=auto;html=1;fontSize=12;startSize=8;endSize=8;fillColor=#d5e8d4;strokeColor=#82b366;" edge="1" parent="1" source="_Byfggc6OKji1Mm2qViK-36" target="_Byfggc6OKji1Mm2qViK-38">
          <mxGeometry relative="1" as="geometry" />
        </mxCell>
        <mxCell id="_Byfggc6OKji1Mm2qViK-36" value="if score 50-0" style="shape=parallelogram;perimeter=parallelogramPerimeter;whiteSpace=wrap;html=1;fixedSize=1;direction=west;rounded=1;fillColor=#d5e8d4;strokeColor=#82b366;" vertex="1" parent="1">
          <mxGeometry x="-480" y="160" width="180" height="90" as="geometry" />
        </mxCell>
        <mxCell id="_Byfggc6OKji1Mm2qViK-67" style="edgeStyle=none;curved=0;rounded=0;orthogonalLoop=1;jettySize=auto;html=1;entryX=0.75;entryY=1;entryDx=0;entryDy=0;fontSize=12;startSize=8;endSize=8;fillColor=#d5e8d4;strokeColor=#82b366;" edge="1" parent="1" source="_Byfggc6OKji1Mm2qViK-38" target="_Byfggc6OKji1Mm2qViK-40">
          <mxGeometry relative="1" as="geometry">
            <Array as="points">
              <mxPoint x="630" y="205" />
            </Array>
          </mxGeometry>
        </mxCell>
        <mxCell id="_Byfggc6OKji1Mm2qViK-38" value="OUTPUT: &quot;SORRY TRY AGAIN&quot; + &quot;F&quot;&amp;nbsp;" style="shape=parallelogram;perimeter=parallelogramPerimeter;whiteSpace=wrap;html=1;fixedSize=1;direction=west;rounded=1;fillColor=#d5e8d4;strokeColor=#82b366;" vertex="1" parent="1">
          <mxGeometry x="-120" y="145" width="240" height="120" as="geometry" />
        </mxCell>
        <mxCell id="_Byfggc6OKji1Mm2qViK-40" value="END" style="shape=parallelogram;perimeter=parallelogramPerimeter;whiteSpace=wrap;html=1;fixedSize=1;rounded=1;fillColor=#d5e8d4;strokeColor=#82b366;" vertex="1" parent="1">
          <mxGeometry x="480" y="-330" width="200" height="100" as="geometry" />
        </mxCell>
        <mxCell id="_Byfggc6OKji1Mm2qViK-47" style="edgeStyle=none;curved=1;rounded=1;orthogonalLoop=1;jettySize=auto;html=1;exitX=1;exitY=0;exitDx=0;exitDy=0;fontSize=12;startSize=8;endSize=8;fillColor=#d5e8d4;strokeColor=#82b366;" edge="1" parent="1" source="_Byfggc6OKji1Mm2qViK-40" target="_Byfggc6OKji1Mm2qViK-40">
          <mxGeometry relative="1" as="geometry" />
        </mxCell>
        <mxCell id="_Byfggc6OKji1Mm2qViK-66" style="edgeStyle=none;curved=0;rounded=0;orthogonalLoop=1;jettySize=auto;html=1;exitX=0;exitY=0.5;exitDx=0;exitDy=0;entryX=0.442;entryY=1.013;entryDx=0;entryDy=0;entryPerimeter=0;fontSize=12;startSize=8;endSize=8;fillColor=#d5e8d4;strokeColor=#82b366;" edge="1" parent="1" source="_Byfggc6OKji1Mm2qViK-34" target="_Byfggc6OKji1Mm2qViK-40">
          <mxGeometry relative="1" as="geometry">
            <Array as="points">
              <mxPoint x="568" y="20" />
            </Array>
          </mxGeometry>
        </mxCell>
      </root>
    </mxGraphModel>
  </diagram>
</mxfile>
